<?xml version="1.0" encoding="UTF-8" standalone="no"?>
<svg
   xmlns:dc="http://purl.org/dc/elements/1.1/"
   xmlns:cc="http://creativecommons.org/ns#"
   xmlns:rdf="http://www.w3.org/1999/02/22-rdf-syntax-ns#"
   xmlns:svg="http://www.w3.org/2000/svg"
   xmlns="http://www.w3.org/2000/svg"
   viewBox="0 0 2500 665"
   height="665"
   width="2500"
   xml:space="preserve"
   version="1.1"
   id="svg2"><metadata
     id="metadata8"><rdf:RDF><cc:Work
         rdf:about=""><dc:format>image/svg+xml</dc:format><dc:type
           rdf:resource="http://purl.org/dc/dcmitype/StillImage" /></cc:Work></rdf:RDF></metadata><defs
     id="defs6"><clipPath
       id="clipPath20"
       clipPathUnits="userSpaceOnUse"><path
         id="path22"
         d="M 0,532 2000,532 2000,0 0,0 0,532 Z" /></clipPath></defs><g
     transform="matrix(1.25,0,0,-1.25,0,665)"
     id="g10"><g
       transform="translate(520.7812,355.7698)"
       id="g12"><path
         id="path14"
         style="fill:#b3b3b3;fill-opacity:1;fill-rule:nonzero;stroke:none"
         d="m 0,0 0,-204 24.593,0 0,166.638 124.819,-166.638 26.444,0 0,204 -24.593,0 0,-164.031 L 26.709,0 0,0 Z" /></g><g
       id="g16"><g
         clip-path="url(#clipPath20)"
         id="g18"><g
           transform="translate(899.0385,326.6244)"
           id="g24"><path
             id="path26"
             style="fill:#b3b3b3;fill-opacity:1;fill-rule:nonzero;stroke:none"
             d="m 0,0 0,21.878 c -85.123,22.275 -170.701,3.238 -163.484,-103.421 6.472,-92.052 87.112,-108.592 163.484,-85.124 l 0,0 0,85.124 -26.651,0 0,-69.611 c -50.517,-11.933 -107.796,2.865 -110.978,69.611 C -141.931,13.036 -74.383,19.491 0,0" /></g><g
           transform="translate(1082.7944,355.7698)"
           id="g28"><path
             id="path30"
             style="fill:#b3b3b3;fill-opacity:1;fill-rule:nonzero;stroke:none"
             d="m 0,0 0,-134.576 c -2.885,-32.159 -23.232,-49.472 -57.707,-49.474 -34.475,0.002 -54.822,17.315 -57.707,49.474 l 0,134.576 -26.537,0 0,-134.576 c 5.385,-57.229 35.07,-70.388 73.478,-71.202 l -0.001,-0.002 c 47.101,-2.619 88.787,5.054 95.011,71.204 L 26.537,0 0,0 Z" /></g><g
           transform="translate(1183.7507,173.4524)"
           id="g32"><path
             id="path34"
             style="fill:#b3b3b3;fill-opacity:1;fill-rule:nonzero;stroke:none"
             d="m 0,0 0,182.317 -26.029,0 0,-204 133.09,0 0,21.683 L 0,0 Z" /></g><g
           transform="translate(1402.6351,382.4397)"
           id="g36"><path
             id="path38"
             style="fill:#b3b3b3;fill-opacity:1;fill-rule:nonzero;stroke:none"
             d="m 0,0 -100.457,-230.67 27.512,0 L 0,-52.217 l 37.896,-92.71 -52.387,0 -7.441,-20.81 68.335,0 26.542,-64.933 27.512,0 L 0,0 Z" /></g><g
           transform="translate(1619.6378,248.2333)"
           id="g40"><path
             id="path42"
             style="fill:#b3b3b3;fill-opacity:1;fill-rule:nonzero;stroke:none"
             d="m 0,0 c 37.366,12.031 56.936,30.456 56.79,59.308 -0.318,34.429 -21.201,48.906 -57.706,48.229 l -87.474,0 0,-21.666 0,-182.335 27.25,0 0,182.335 60.224,0 0,0 C 22.212,84.268 28.166,73.735 28.166,57.935 28.166,38.302 18.152,26.502 -3.123,18.942 -11.255,16.209 -19.988,13.972 -29.54,12.365 l 0,-16.716 64.804,-92.113 35.265,0 L 0,0 Z" /></g><g
           transform="translate(1719.126,173.941)"
           id="g44"><path
             id="path46"
             style="fill:#b3b3b3;fill-opacity:1;fill-rule:nonzero;stroke:none"
             d="m 0,0 0,-22.171 c 41.947,1.205 70.47,15.839 69.325,60.148 l 0,143.852 -26.512,0 0,-147.077 C 44.067,13.256 28.661,0.662 0,0" /></g><g
           transform="translate(1976.6946,349.0288)"
           id="g48"><path
             id="path50"
             style="fill:#b3b3b3;fill-opacity:1;fill-rule:nonzero;stroke:none"
             d="m 0,0 0,-24.192 c -61.537,20.256 -121.847,12.946 -122.066,-24.548 0.688,-26.938 13.893,-35.33 59.184,-33.627 51.37,2.166 70.224,-20.698 69.607,-58.511 -1.355,-58.963 -59.585,-67.561 -147.622,-48.954 l 0,24.743 c 55.646,-16.678 122.375,-20.196 120.72,23.878 0.222,26.886 -10.76,37.659 -60.864,35.305 -45.659,0.651 -69.351,18.93 -66.918,58.175 C -143.656,8.91 -87.727,19.829 0,0" /></g><g
           transform="translate(11.0253,436.2625)"
           id="g52"><path
             id="path54"
             style="fill:#b3b3b3;fill-opacity:1;fill-rule:nonzero;stroke:none"
             d="M 0,0 238.748,83.481 478.706,0 440.797,-310.937 239.353,-422.246 37.506,-310.937 0,0 Z" /></g><g
           transform="translate(249.7941,493.8174)"
           id="g56"><path
             id="path58"
             style="fill:#a5120d;fill-opacity:1;fill-rule:nonzero;stroke:none"
             d="m 0,0 0,-452.198 179.242,99.084 34.006,278.926 L 0,0 Z" /></g><g
           transform="translate(249.7941,493.8174)"
           id="g60"><path
             id="path62"
             style="fill:#dc1b16;fill-opacity:1;fill-rule:nonzero;stroke:none"
             d="m 0,0 0,-452.198 -179.242,99.084 -34.006,278.926 L 0,0 Z" /></g><g
           transform="translate(206.5767,262.6389)"
           id="g64"><path
             id="path66"
             style="fill:#ffffff;fill-opacity:1;fill-rule:nonzero;stroke:none"
             d="M 0,0 43.265,102.751 86.531,0 C 18.103,-0.156 37.16,-0.164 0,0 m 43.266,208.108 0,0.002 -10e-4,-0.001 0,0.001 0,-0.002 -146.721,-325.798 53.9,0 30.949,73.501 123.744,0 30.949,-73.501 53.901,0 -146.721,325.798 z" /></g><g
           transform="translate(249.8422,470.7473)"
           id="g68"><path
             id="path70"
             style="fill:#b3b2b2;fill-opacity:1;fill-rule:nonzero;stroke:none"
             d="m 0,0 0,0.001 0,0 0,-105.359 43.265,-102.75 C 21.579,-208.158 8.686,-208.192 0,-208.211 l 0,-44.086 61.872,0 30.949,-73.502 53.9,0 L 0,0 Z" /></g><g
           transform="translate(526.8859,362.6523)"
           id="g72"><path
             id="path74"
             style="fill:#020202;fill-opacity:1;fill-rule:nonzero;stroke:none"
             d="m 0,0 0,-204 24.593,0 0,166.638 124.819,-166.638 26.444,0 0,204 -24.593,0 0,-164.031 L 26.709,0 0,0 Z" /></g><g
           transform="translate(905.1431,333.5069)"
           id="g76"><path
             id="path78"
             style="fill:#020202;fill-opacity:1;fill-rule:nonzero;stroke:none"
             d="m 0,0 0,21.878 c -85.123,22.275 -170.701,3.238 -163.484,-103.421 6.472,-92.052 87.112,-108.592 163.484,-85.124 l 0,0 0,85.124 -26.651,0 0,-69.611 c -50.517,-11.933 -107.796,2.865 -110.978,69.611 C -141.931,13.036 -74.383,19.491 0,0" /></g><g
           transform="translate(1088.8992,362.6523)"
           id="g80"><path
             id="path82"
             style="fill:#020202;fill-opacity:1;fill-rule:nonzero;stroke:none"
             d="m 0,0 0,-134.576 c -2.885,-32.159 -23.232,-49.472 -57.707,-49.474 -34.475,0.002 -54.822,17.315 -57.707,49.474 l 0,134.576 -26.537,0 0,-134.576 c 5.385,-57.229 35.07,-70.388 73.478,-71.202 l -0.001,-0.002 c 47.101,-2.619 88.787,5.054 95.011,71.204 L 26.537,0 0,0 Z" /></g><g
           transform="translate(1189.8555,180.3349)"
           id="g84"><path
             id="path86"
             style="fill:#020202;fill-opacity:1;fill-rule:nonzero;stroke:none"
             d="m 0,0 0,182.317 -26.029,0 0,-204 133.09,0 0,21.683 L 0,0 Z" /></g><g
           transform="translate(1408.7399,389.3222)"
           id="g88"><path
             id="path90"
             style="fill:#020202;fill-opacity:1;fill-rule:nonzero;stroke:none"
             d="m 0,0 -100.457,-230.67 27.512,0 L 0,-52.217 l 37.896,-92.71 -52.387,0 -7.441,-20.81 68.335,0 26.542,-64.933 27.512,0 L 0,0 Z" /></g><g
           transform="translate(1625.7426,255.1158)"
           id="g92"><path
             id="path94"
             style="fill:#020202;fill-opacity:1;fill-rule:nonzero;stroke:none"
             d="m 0,0 c 37.366,12.031 56.936,30.456 56.79,59.308 -0.318,34.429 -21.201,48.906 -57.706,48.229 l -87.474,0 0,-21.666 0,-182.335 27.25,0 0,182.335 60.224,0 0,0 C 22.212,84.268 28.166,73.735 28.166,57.935 28.166,38.302 18.152,26.502 -3.123,18.942 -11.255,16.209 -19.988,13.972 -29.54,12.365 l 0,-16.716 64.804,-92.113 35.265,0 L 0,0 Z" /></g><g
           transform="translate(1725.2307,180.8235)"
           id="g96"><path
             id="path98"
             style="fill:#a5120d;fill-opacity:1;fill-rule:nonzero;stroke:none"
             d="m 0,0 0,-22.171 c 41.947,1.205 70.47,15.839 69.325,60.148 l 0,143.852 -26.512,0 0,-147.077 C 44.067,13.256 28.661,0.662 0,0" /></g><g
           transform="translate(1982.7993,355.9113)"
           id="g100"><path
             id="path102"
             style="fill:#a5120d;fill-opacity:1;fill-rule:nonzero;stroke:none"
             d="m 0,0 0,-24.192 c -61.537,20.256 -121.847,12.946 -122.066,-24.548 0.688,-26.937 13.893,-35.33 59.184,-33.627 51.37,2.166 70.224,-20.698 69.607,-58.511 -1.355,-58.963 -59.585,-67.561 -147.622,-48.954 l 0,24.743 c 55.646,-16.678 122.375,-20.196 120.72,23.878 0.222,26.886 -10.76,37.659 -60.864,35.305 -45.659,0.651 -69.351,18.93 -66.918,58.175 C -143.656,8.91 -87.727,19.829 0,0" /></g><g
           transform="translate(1562.9552,47.7485)"
           id="g104"><path
             id="path106"
             style="fill:#00000d;fill-opacity:1;fill-rule:nonzero;stroke:none"
             d="m 0,0 c -5.786,0 -11.047,2.804 -11.047,13.91 0,9.541 4.077,13.91 11.047,13.91 6.312,0 8.943,-6.228 8.943,-13.91 C 8.943,6.228 6.049,0 0,0 m 1.644,33.051 c -6.278,0 -10.301,-2.443 -12.691,-6.26 l 0,18.753 -5.786,0 0,-49.316 5.786,0 0,5.266 c 2.362,-4.157 6.363,-6.932 12.691,-6.713 7.573,0.263 13.743,8.813 13.743,18.872 0,11.244 -6.153,19.398 -13.743,19.398" /></g><g
           transform="translate(1606.6459,79.0686)"
           id="g108"><path
             id="path110"
             style="fill:#00000d;fill-opacity:1;fill-rule:nonzero;stroke:none"
             d="M 0,0 -9.331,-28.796 -18.983,0 -26.302,0 c 0,0 12.958,-35.919 13.559,-37.603 -0.323,-1.25 -0.617,-1.806 -1.494,-4.143 -1.668,-4.443 -3.767,-5.092 -8.285,-3.298 l 0,-5.791 c 6.539,-1.068 10.096,-0.561 13.031,7.078 C -8.104,-40.145 7.32,0 7.32,0 L 0,0 Z" /></g><g
           transform="translate(1721.7445,88.2819)"
           id="g112"><path
             id="path114"
             style="fill:#000000;fill-opacity:1;fill-rule:nonzero;stroke:none"
             d="m 0,0 -39.812,0 0,-11.712 28.335,0 c -1.383,-16.424 -15.048,-23.428 -27.946,-23.428 -16.501,0 -30.901,12.983 -30.901,31.181 0,17.728 13.727,31.381 30.938,31.381 13.278,0 21.103,-8.465 21.103,-8.465 l 8.201,8.493 c 0,0 -10.526,11.718 -29.724,11.718 -24.445,0 -43.357,-20.632 -43.357,-42.917 0,-21.837 17.79,-43.13 43.981,-43.13 23.034,0 39.896,15.779 39.896,39.114 0,4.923 -0.715,7.768 -0.715,7.768 L 0,0 Z" /></g><g
           transform="translate(1755.6057,85.9009)"
           id="g116"><path
             id="path118"
             style="fill:#000000;fill-opacity:1;fill-rule:nonzero;stroke:none"
             d="m 0,0 c 7.964,0 15.512,-6.439 15.512,-16.815 0,-10.155 -7.515,-16.778 -15.548,-16.778 -8.827,0 -15.79,7.07 -15.79,16.859 C -15.826,-7.154 -8.949,0 0,0 m -0.161,10.863 c -16.196,0 -27.802,-12.662 -27.802,-27.429 0,-14.985 11.258,-27.882 27.992,-27.882 15.15,0 27.561,11.579 27.561,27.56 0,18.318 -14.437,27.751 -27.751,27.751" /></g><g
           transform="translate(1815.7301,85.9009)"
           id="g120"><path
             id="path122"
             style="fill:#000000;fill-opacity:1;fill-rule:nonzero;stroke:none"
             d="m 0,0 c 7.964,0 15.512,-6.439 15.512,-16.815 0,-10.155 -7.515,-16.778 -15.549,-16.778 -8.826,0 -15.789,7.07 -15.789,16.859 C -15.826,-7.154 -8.949,0 0,0 m -0.161,10.863 c -16.196,0 -27.803,-12.662 -27.803,-27.429 0,-14.985 11.258,-27.882 27.993,-27.882 15.15,0 27.561,11.579 27.561,27.56 0,18.318 -14.437,27.751 -27.751,27.751" /></g><g
           transform="translate(1875.9534,85.8938)"
           id="g124"><path
             id="path126"
             style="fill:#000000;fill-opacity:1;fill-rule:nonzero;stroke:none"
             d="m 0,0 c 7.288,0 14.772,-6.223 14.772,-16.851 0,-10.803 -7.468,-16.756 -14.933,-16.756 -7.925,0 -15.3,6.435 -15.3,16.653 C -15.461,-6.336 -7.802,0 0,0 Z m -1.076,10.841 c -14.866,0 -26.551,-13.02 -26.551,-27.634 0,-16.646 13.547,-27.685 26.295,-27.685 7.882,0 12.073,3.129 15.167,6.72 l 0,-5.453 c 0,-9.542 -5.793,-15.256 -14.538,-15.256 -8.447,0 -12.684,6.282 -14.157,9.846 l -10.629,-4.443 c 3.771,-7.973 11.361,-16.288 24.874,-16.288 14.781,0 26.046,9.31 26.046,28.835 l 0,50.379 -11.595,0 0,-5.369 C 10.27,8.336 5.394,10.84 -1.076,10.84 l 0,10e-4 z" /></g><g
           transform="translate(1952.3976,86.1647)"
           id="g128"><path
             id="path130"
             style="fill:#000000;fill-opacity:1;fill-rule:nonzero;stroke:none"
             d="M 0,0 C 5.053,0 8.689,-2.687 10.234,-5.907 L -14.531,-16.258 C -15.598,-8.245 -8.006,0 0,0 m -0.483,10.636 c -14.023,0 -25.797,-11.156 -25.797,-27.619 0,-17.42 13.124,-27.751 27.144,-27.751 11.701,0 18.883,6.402 23.168,12.137 l -9.56,6.361 c -2.481,-3.85 -6.628,-7.613 -13.55,-7.613 -7.774,0 -11.349,4.258 -13.564,8.382 l 37.083,15.387 -1.925,4.509 C 18.933,3.26 10.577,10.635 -0.482,10.635 l -0.001,10e-4 z" /></g><path
           id="path132"
           style="fill:#000000;fill-opacity:1;fill-rule:nonzero;stroke:none"
           d="m 1909.123,43.073 11.359,0 0,81.517 -11.359,0 0,-81.517 z" /></g></g></g></svg>