<?xml version="1.0" encoding="UTF-8" standalone="no"?>
<svg
   xmlns:dc="http://purl.org/dc/elements/1.1/"
   xmlns:cc="http://creativecommons.org/ns#"
   xmlns:rdf="http://www.w3.org/1999/02/22-rdf-syntax-ns#"
   xmlns:svg="http://www.w3.org/2000/svg"
   xmlns="http://www.w3.org/2000/svg"
   viewBox="0 0 177.16499 177.16499"
   height="177.16499"
   width="177.16499"
   xml:space="preserve"
   version="1.1"
   id="svg2"><metadata
     id="metadata8"><rdf:RDF><cc:Work
         rdf:about=""><dc:format>image/svg+xml</dc:format><dc:type
           rdf:resource="http://purl.org/dc/dcmitype/StillImage" /></cc:Work></rdf:RDF></metadata><defs
     id="defs6"><linearGradient
       id="linearGradient24"
       spreadMethod="pad"
       gradientTransform="matrix(97.889168,75.66954,75.66954,-97.889168,18.949219,27.960937)"
       gradientUnits="userSpaceOnUse"
       y2="0"
       x2="1"
       y1="0"
       x1="0"><stop
         id="stop26"
         offset="0"
         style="stop-opacity:1;stop-color:#2e2e43" /><stop
         id="stop28"
         offset="1"
         style="stop-opacity:1;stop-color:#673e59" /></linearGradient><clipPath
       id="clipPath36"
       clipPathUnits="userSpaceOnUse"><path
         id="path38"
         d="m 0,141.732 141.732,0 L 141.732,0 0,0 0,141.732 Z" /></clipPath></defs><g
     transform="matrix(1.25,0,0,-1.25,0,177.165)"
     id="g10"><g
       id="g12"><g
         id="g14"><g
           id="g20"><g
             id="g22"><path
               id="path30"
               style="fill:url(#linearGradient24);stroke:none"
               d="m 30.406,125.56 c -8.413,0 -15.233,-6.82 -15.233,-15.232 l 0,0 0,-82.922 c 0,-8.412 6.82,-15.233 15.233,-15.233 l 0,0 82.921,0 c 8.412,0 15.233,6.821 15.233,15.233 l 0,0 0,82.922 c 0,8.412 -6.821,15.232 -15.233,15.232 l 0,0 -82.921,0 z" /></g></g></g></g><g
       id="g32"><g
         clip-path="url(#clipPath36)"
         id="g34"><g
           transform="translate(60.7656,45.7676)"
           id="g40"><path
             id="path42"
             style="fill:#ffffff;fill-opacity:1;fill-rule:nonzero;stroke:none"
             d="m 0,0 11.556,0 c 9.609,0 10.169,6.761 10.169,9.138 0,2.206 -0.829,9.028 -10.212,9.028 L 0,18.166 0,0 Z m 0,30.849 10.079,0 c 7.458,0 8.21,4.886 8.21,7.229 0,2.171 -1.356,6.923 -8.08,6.923 L 0,45.001 0,30.849 Z m -18.327,27.751 33.11,0 c 18.741,0 22.791,-13.322 22.791,-18.582 0,-10.638 -6.032,-13.359 -9.044,-14.581 4.575,-1.291 11.998,-5.193 11.998,-18.722 0,-3.868 -0.488,-19.116 -24.888,-19.116 l -33.967,0 0,71.001 z" /></g></g></g></g></svg>