<?xml version="1.0" encoding="UTF-8" standalone="no"?>
<svg
   xmlns:dc="http://purl.org/dc/elements/1.1/"
   xmlns:cc="http://creativecommons.org/ns#"
   xmlns:rdf="http://www.w3.org/1999/02/22-rdf-syntax-ns#"
   xmlns:svg="http://www.w3.org/2000/svg"
   xmlns="http://www.w3.org/2000/svg"
   viewBox="0 0 500 705.38751"
   height="705.38751"
   width="500"
   xml:space="preserve"
   version="1.1"
   id="svg2"><metadata
     id="metadata8"><rdf:RDF><cc:Work
         rdf:about=""><dc:format>image/svg+xml</dc:format><dc:type
           rdf:resource="http://purl.org/dc/dcmitype/StillImage" /></cc:Work></rdf:RDF></metadata><defs
     id="defs6" /><g
     transform="matrix(1.25,0,0,-1.25,0,705.3875)"
     id="g10"><g
       transform="scale(0.1,0.1)"
       id="g12"><path
         id="path14"
         style="fill:#000000;fill-opacity:1;fill-rule:nonzero;stroke:none"
         d="m 1420,5383.13 0,260 -620,0 0,-760 620,0 0,260 -360,0 0,240 360,0" /><path
         id="path16"
         style="fill:#000000;fill-opacity:1;fill-rule:nonzero;stroke:none"
         d="m 2300,5643.13 -620,0 0,-266.88 258.71,-233.12 -258.71,0 0,-260 620,0 0,253.12 -235.2,246.88 235.2,0 0,260" /><path
         id="path18"
         style="fill:#000000;fill-opacity:1;fill-rule:nonzero;stroke:none"
         d="m 3200,5643.13 -620,0 0,-266.88 248.71,-233.12 -248.71,0 0,-260 620,0 0,253.12 -245.2,246.88 245.2,0 0,260" /><path
         id="path20"
         style="fill:#0071bc;fill-opacity:1;fill-rule:nonzero;stroke:none"
         d="M 364.023,453.48 0,4536.25 l 4000,0 L 3635.59,454.148 1997.58,0 364.023,453.48" /><path
         id="path22"
         style="fill:#29abe2;fill-opacity:1;fill-rule:nonzero;stroke:none"
         d="m 2003.36,347.352 1321.95,363.668 309.73,3485.23 -1631.68,0 0,-3848.898" /><path
         id="path24"
         style="fill:#b3b3b3;fill-opacity:1;fill-rule:nonzero;stroke:none"
         d="m 833.242,2696.25 43.848,-500 1126.27,500 0,500.81 -1170.118,-500.81" /><path
         id="path26"
         style="fill:#e6e6e6;fill-opacity:1;fill-rule:nonzero;stroke:none"
         d="m 3250.74,3731.65 -1247.38,-534.59 0,-500.81 1204.37,535.4 43.01,500" /><path
         id="path28"
         style="fill:#e6e6e6;fill-opacity:1;fill-rule:nonzero;stroke:none"
         d="m 2003.36,1388.01 -3.87,-0.58 -558.55,150 -36.49,398.82 -502.692,0 70.156,-785.7 1027.466,-284.491 3.98,0.941 0,521.01" /><path
         id="path30"
         style="fill:#ffffff;fill-opacity:1;fill-rule:nonzero;stroke:none"
         d="m 2003.36,2696.25 0,-500 611.52,0 -55.58,-653.71 -555.94,-154.96 0,-520.971 1024.06,284.491 134.85,1545.15 -1158.91,0" /><path
         id="path32"
         style="fill:#e6e6e6;fill-opacity:1;fill-rule:nonzero;stroke:none"
         d="m 2003.36,2696.25 -1170.118,0 43.848,-500 1126.27,0 0,500" /><path
         id="path34"
         style="fill:#e6e6e6;fill-opacity:1;fill-rule:nonzero;stroke:none"
         d="m 2003.36,3231.65 0,500 -1259.024,0 44.375,-500 1214.649,0" /><path
         id="path36"
         style="fill:#ffffff;fill-opacity:1;fill-rule:nonzero;stroke:none"
         d="m 2003.36,3731.65 0,-500 1204.37,0 43.01,500 -1247.38,0" /></g></g></svg>