<?xml version="1.0" encoding="UTF-8" standalone="no"?>
<svg
   xmlns:dc="http://purl.org/dc/elements/1.1/"
   xmlns:cc="http://creativecommons.org/ns#"
   xmlns:rdf="http://www.w3.org/1999/02/22-rdf-syntax-ns#"
   xmlns:svg="http://www.w3.org/2000/svg"
   xmlns="http://www.w3.org/2000/svg"
   viewBox="0 0 765 227.5"
   height="227.5"
   width="765"
   xml:space="preserve"
   version="1.1"
   id="svg2"><metadata
     id="metadata8"><rdf:RDF><cc:Work
         rdf:about=""><dc:format>image/svg+xml</dc:format><dc:type
           rdf:resource="http://purl.org/dc/dcmitype/StillImage" /></cc:Work></rdf:RDF></metadata><defs
     id="defs6"><clipPath
       id="clipPath16"
       clipPathUnits="userSpaceOnUse"><path
         id="path18"
         d="M 0,182 612,182 612,0 0,0 0,182 Z" /></clipPath><clipPath
       id="clipPath36"
       clipPathUnits="userSpaceOnUse"><path
         id="path38"
         d="M 0,182 612,182 612,0 0,0 0,182 Z" /></clipPath></defs><g
     transform="matrix(1.25,0,0,-1.25,0,227.5)"
     id="g10"><g
       id="g12"><g
         clip-path="url(#clipPath16)"
         id="g14"><g
           transform="translate(55.7476,117.4253)"
           id="g20"><path
             id="path22"
             style="fill:#3166b6;fill-opacity:1;fill-rule:nonzero;stroke:none"
             d="m 0,0 0.418,1.359 c -0.234,0 1.841,3.188 1.608,3.188 -15.187,-14.698 -13.87,-34.377 -6.567,-48.523 5.093,-9.867 14.415,-19.104 25.501,-24.083 5.135,-2.303 12.998,-4.42 21.251,-4.25 17.652,0.368 30.027,8.712 37.011,22.312 l 0.411,1.063 C 73.47,-55.146 63.426,-59.46 55.549,-60.267 22.773,-63.625 -10.945,-34.264 0,0" /></g><g
           transform="translate(99.2549,112.4092)"
           id="g24"><path
             id="path26"
             style="fill:#3166b6;fill-opacity:1;fill-rule:nonzero;stroke:none"
             d="m 0,0 c 4.328,-6.963 12.594,-13.083 25.5,-10.335 3.259,0.694 10.64,6.248 11.922,9.188 -11.064,-7.53 -17.929,-5.008 -21.18,-4.052 -0.716,0.205 -2.373,0.949 -3.917,1.877 C 8.897,-1.261 7.203,-0.318 4.533,3.563 3.067,5.695 1.6,9.082 1.119,11.022 0.325,14.231 0.545,19.168 2.054,23.418 -2.954,18.949 -3.726,10.314 -2.048,4.604 -1.835,3.882 -0.645,1.041 0,0" /></g><g
           transform="translate(102.7964,75.5757)"
           id="g28"><path
             id="path30"
             style="fill:#3166b6;fill-opacity:1;fill-rule:nonzero;stroke:none"
             d="M 0,0 C 17.326,-2.317 30.247,4.965 34.709,16.291 29.609,10.88 20.995,7.026 12.75,7.083 c -18.438,0.12 -39.158,16.639 -36.834,39.668 0.198,1.983 0.991,5.093 3.116,9.124 -6.113,-7.708 -9.824,-14.062 -8.783,-24.708 C -28.328,16.54 -14.507,1.94 0,0" /></g></g></g><g
       id="g32"><g
         clip-path="url(#clipPath36)"
         id="g34"><g
           transform="translate(544.2227,136.6143)"
           id="g40"><path
             id="path42"
             style="fill:#231f20;fill-opacity:1;fill-rule:nonzero;stroke:none"
             d="m 0,0 -31.289,-43.331 -2.832,11.334 -20.543,0 c 0,0 2.039,-10.314 3.541,-15.584 1.488,-5.206 4.137,-10.391 4.25,-15.584 0.129,-5.942 -2.982,-17.099 -2.982,-17.099 l 19.984,0.099 c 0,0 2.152,10.704 4.25,15.584 0.828,1.941 2.465,3.506 3.541,4.958 3.314,4.484 43.918,59.502 43.918,59.502 L 0,0 Z" /></g><g
           transform="translate(502.8691,125.0112)"
           id="g44"><path
             id="path46"
             style="fill:#231f20;fill-opacity:1;fill-rule:nonzero;stroke:none"
             d="m 0,0 c -4.393,2.642 -14.834,1.501 -23.766,1.501 l -13.834,0 c -8.664,0 -13.793,0.574 -14.67,-2.769 -2.707,-10.328 -14.168,-67.294 -14.168,-67.294 l 18.418,0 12.041,52.418 9.918,0 c 11.475,0 32.563,0.312 32.563,0.312 0,0 -2.473,13.402 -6.502,15.832" /></g><g
           transform="translate(417.1289,99.4819)"
           id="g48"><path
             id="path50"
             style="fill:#231f20;fill-opacity:1;fill-rule:nonzero;stroke:none"
             d="m 0,0 -27.449,0.177 c 0,0 -0.311,11.858 15.691,11.355 5.666,-0.177 7.656,-0.949 9.811,-4.271 C 0.574,3.365 0,0 0,0 m 15.229,19.955 c -3.86,5.383 -11.764,7.253 -17,7.792 -13.905,1.423 -25.479,-2.296 -31.875,-7.084 -1.934,-1.445 -3.543,-2.607 -4.959,-4.25 -0.51,-0.595 -1.063,-1.261 -1.538,-1.948 -0.41,-0.581 -0.9,-0.978 -1.296,-1.594 -0.588,-0.892 -1.211,-2.579 -1.948,-4.073 -0.588,-1.197 -1.148,-2.607 -1.593,-3.719 -3.84,-9.591 -7.756,-27.491 -4.25,-36.834 0.517,-1.382 1.671,-3.131 2.068,-3.662 0.496,-0.666 0.949,-1.438 1.473,-2.005 1.919,-2.069 4.761,-3.528 7.793,-4.25 15.349,-3.662 46.042,-2.125 46.042,-2.125 l 3.762,16.66 c 0,0 -21.721,-0.978 -32.096,0.34 -1.552,0.198 -5.873,0.418 -8.089,2.359 -1.928,1.686 -4.202,5.674 -2.536,8.266 1.182,1.849 5.942,1.297 9.917,1.417 12.785,0.39 36.125,0 36.125,0 0,0 4.47,19.877 2.125,28.334 -0.581,2.083 -1.09,4.938 -2.125,6.376" /></g><g
           transform="translate(350.0117,126.5767)"
           id="g52"><path
             id="path54"
             style="fill:#231f20;fill-opacity:1;fill-rule:nonzero;stroke:none"
             d="m 0,0 -12.75,-53.127 c 0,0 -7.055,-0.049 -9.209,0 -6.799,0.156 -9.031,0.383 -10.625,3.542 -1.678,3.322 -0.07,7.551 0.709,12.042 2.174,12.538 7.402,37.649 7.402,37.649 l -18.502,-0.17 c 0,0 -3.522,-16.129 -5.192,-24.02 -2.367,-11.15 -7.402,-27.562 -2.125,-37.543 5.439,-10.278 18.226,-8.5 32.583,-8.5 l 20.543,0 C 7.906,-47.105 17.857,0.106 17.857,0.106 L 0,0 Z" /></g><g
           transform="translate(266.4263,92.5757)"
           id="g56"><path
             id="path58"
             style="fill:#231f20;fill-opacity:1;fill-rule:nonzero;stroke:none"
             d="m 0,0 c -1.785,-6.326 -3.542,-12.722 -5.667,-18.417 -14.316,0.084 -27.612,-1.871 -31.876,7.083 -2.408,5.065 -1.325,11.922 0,18.417 1.778,8.749 3.478,15.103 8.501,20.543 3.881,4.2 13.649,9.35 24.084,5.666 C -1.495,32.067 3.875,26.237 4.25,19.834 4.597,13.848 1.87,6.644 0,0 m 24.792,26.209 c -1.09,7.919 -6.254,16.526 -11.921,20.131 -0.234,0.142 -1.247,0.95 -1.538,1.12 C 7.14,49.889 0.425,51.937 -4.25,52.418 -28.355,54.89 -42.735,44.18 -51.001,29.751 c -3.252,-5.667 -5.405,-11.858 -7.084,-18.418 -1.856,-7.267 -3.188,-16.079 -2.125,-24.083 0.637,-4.796 3.272,-11.61 7.084,-15.584 9.385,-9.783 27.788,-8.5 47.459,-8.5 6.028,0 20.486,0.12 24.849,0.233 1.41,0.042 5.455,16.505 5.093,17.036 -0.347,0.411 -5.164,-0.163 -10.66,0.333 5.39,14.238 13.218,30.608 11.177,45.441" /></g><g
           transform="translate(180.7148,109.5757)"
           id="g60"><path
             id="path62"
             style="fill:#231f20;fill-opacity:1;fill-rule:nonzero;stroke:none"
             d="m 0,0 19.834,0 c 1.254,5.355 2.444,11.497 3.634,16.916 -6.97,0 -12.871,0.085 -19.218,0.085 C 2.713,11.837 1.537,5.937 0,0" /></g><g
           transform="translate(172.2148,72.0337)"
           id="g64"><path
             id="path66"
             style="fill:#231f20;fill-opacity:1;fill-rule:nonzero;stroke:none"
             d="m 0,0 c -2.925,-13.757 -3.308,-28.037 -18.417,-26.209 -1.445,-5.313 -3.28,-12.432 -4.902,-18.361 6.198,-0.128 11.901,-0.602 16.944,-0.057 3.103,0.34 8.706,1.679 9.917,2.834 0.489,0.467 0.829,0.248 1.417,0.708 6.573,5.135 8.195,12.233 10.625,21.959 3.882,15.541 8.833,37.869 11.333,51.71 l -19.125,0 C 6.822,29.396 1.693,7.947 0,0" /></g></g></g></g></svg>